<?xml version="1.0" encoding="UTF-8"?>
<svg xmlns="http://www.w3.org/2000/svg" width="155.96pt" height="222.8pt" viewBox="-115.3 -152.08 155.96 222.8"><path d="M 0 0 L 13.2,0" style="stroke:black;fill:none;stroke-width:2;stroke-linecap:round;stroke-linejoin:round;"/><path d="M 13.2 -13.2 L 13.2,13.2" style="stroke:black;fill:none;stroke-width:2;stroke-linecap:round;stroke-linejoin:round;"/><path d="M 13.2 -6.6 L 27.06,-18.48 L 27.06,-25.08" style="stroke:black;fill:none;stroke-width:2;stroke-linecap:round;stroke-linejoin:round;"/><path d="M 13.2 6.6 L 27.06,18.48 L 27.06,25.08" style="stroke:black;fill:none;stroke-width:2;stroke-linecap:round;stroke-linejoin:round;"/><path d="M 13.2 6.6 L 20.227,12.623" style="stroke:black;fill:none;stroke-width:2;stroke-linecap:round;stroke-linejoin:round;"/><path d="M 25.541 17.178 L 17.884 15.356 L 22.57 9.89 Z" style="stroke:black;fill:black;stroke-linecap:butt;stroke-linejoin:miter;"/><path d="M 0 0 L -36,-0" style="stroke:black;fill:none;stroke-width:2;stroke-linecap:round;stroke-linejoin:round;"/><path d="M -36 -0 L -39,9 L -45,-9 L -51,9 L -57,-9 L -63,9 L -69,-9 L -72,-0" style="stroke:black;fill:none;stroke-width:2;stroke-linecap:round;stroke-linejoin:round;"/><path d="M -72 -0 L -108,-0" style="stroke:black;fill:none;stroke-width:2;stroke-linecap:round;stroke-linejoin:round;"/><path d="M 27.06 -25.08 L 27.06,-61.08" style="stroke:black;fill:none;stroke-width:2;stroke-linecap:round;stroke-linejoin:round;"/><path d="M 27.06 -61.08 L 18.06,-64.08 L 36.06,-70.08 L 18.06,-76.08 L 36.06,-82.08 L 18.06,-88.08 L 36.06,-94.08 L 27.06,-97.08" style="stroke:black;fill:none;stroke-width:2;stroke-linecap:round;stroke-linejoin:round;"/><path d="M 27.06 -97.08 L 27.06,-133.08" style="stroke:black;fill:none;stroke-width:2;stroke-linecap:round;stroke-linejoin:round;"/><path d="M 27.06 -133.08 L 27.06,-147.48" style="stroke:black;fill:none;stroke-width:2;stroke-linecap:round;stroke-linejoin:round;"/><path d="M 27.06 -147.48 L 20.31,-147.48" style="stroke:black;fill:none;stroke-width:2;stroke-linecap:round;stroke-linejoin:round;"/><path d="M 27.06 -147.48 L 33.81,-147.48" style="stroke:black;fill:none;stroke-width:2;stroke-linecap:round;stroke-linejoin:round;"/><path d="M 27.06 25.08 L 27.06,34.08" style="stroke:black;fill:none;stroke-width:2;stroke-linecap:round;stroke-linejoin:round;"/><path d="M 27.06 34.08" style="stroke:black;fill:none;stroke-width:2;stroke-linecap:round;stroke-linejoin:round;"/><path d="M 27.06 34.08 L 27.06,43.08" style="stroke:black;fill:none;stroke-width:2;stroke-linecap:round;stroke-linejoin:round;"/><path d="M 27.06 43.08 L 27.06,57.48 L 18.06,57.48 L 36.06,57.48 M 20.76,61.8 L 33.36,61.8 M 25.26,66.12 L 28.86,66.12" style="stroke:black;fill:none;stroke-width:2;stroke-linecap:round;stroke-linejoin:round;"/><text x="-54" y="-16.2" dominant-baseline="ideographic" fill="black" font-size="14" font-family="sans-serif" text-anchor="middle">Rb</text><text x="7.26" y="-79.08" dominant-baseline="central" fill="black" font-size="14" font-family="sans-serif" text-anchor="end">Rc</text><circle cx="-108" cy="-0" r="2.7" style="stroke:black;fill:black;stroke-width:2;"/></svg>