<?xml version="1.0" encoding="UTF-8"?>
<svg xmlns="http://www.w3.org/2000/svg" width="321.416pt" height="91.8pt" viewBox="-114.808 -13.6 321.416 91.8"><path d="M 36 27 L 37.153,26.963 L 38.302,26.852 L 39.441,26.668 L 40.566,26.411 L 41.672,26.083 L 42.755,25.685 L 43.81,25.217 L 44.833,24.684 L 45.82,24.086 L 46.766,23.425 L 47.668,22.706 L 48.522,21.93 L 49.325,21.101 L 50.073,20.223 L 50.763,19.298 L 51.393,18.331 L 51.959,17.326 L 52.459,16.286 L 52.892,15.217 L 53.256,14.121 L 53.549,13.005 L 53.769,11.873 L 53.917,10.728 L 53.991,9.577 L 53.991,8.423 L 53.917,7.272 L 53.769,6.127 L 53.549,4.995 L 53.256,3.879 L 52.892,2.783 L 52.459,1.714 L 51.959,0.674 L 51.393,-0.331 L 50.763,-1.298 L 50.073,-2.223 L 49.325,-3.101 L 48.522,-3.93 L 47.668,-4.706 L 46.766,-5.425 L 45.82,-6.086 L 44.833,-6.684 L 43.81,-7.217 L 42.755,-7.685 L 41.672,-8.083 L 40.566,-8.411 L 39.441,-8.668 L 38.302,-8.852 L 37.153,-8.963 L 36,-9 L 36,-9 L 12.6,-9 L 12.6,9 L 12.6,27 L 36,27" style="stroke:black;fill:none;stroke-width:2;stroke-linecap:round;stroke-linejoin:round;"/><path d="M 0 18 L 12.6,18" style="stroke:black;fill:none;stroke-width:2;stroke-linecap:round;stroke-linejoin:round;"/><path d="M 0 0 L 12.6,0" style="stroke:black;fill:none;stroke-width:2;stroke-linecap:round;stroke-linejoin:round;"/><path d="M 54 9 L 66.6,9" style="stroke:black;fill:none;stroke-width:2;stroke-linecap:round;stroke-linejoin:round;"/><path d="M 0 0 L -45,-0" style="stroke:black;fill:none;stroke-width:2;stroke-linecap:round;stroke-linejoin:round;"/><path d="M -45 -0" style="stroke:black;fill:none;stroke-width:2;stroke-linecap:round;stroke-linejoin:round;"/><path d="M -45 -0 L -90,-0" style="stroke:black;fill:none;stroke-width:2;stroke-linecap:round;stroke-linejoin:round;"/><path d="M 0 18 L -45,18" style="stroke:black;fill:none;stroke-width:2;stroke-linecap:round;stroke-linejoin:round;"/><path d="M -45 18" style="stroke:black;fill:none;stroke-width:2;stroke-linecap:round;stroke-linejoin:round;"/><path d="M -45 18 L -90,18" style="stroke:black;fill:none;stroke-width:2;stroke-linecap:round;stroke-linejoin:round;"/><path d="M 79.2 35.64 L 97.2,35.64 L 97.714,35.633 L 98.229,35.611 L 98.743,35.574 L 99.257,35.522 L 99.771,35.456 L 100.286,35.376 L 100.8,35.28 L 101.314,35.17 L 101.829,35.045 L 102.343,34.905 L 102.857,34.751 L 103.371,34.582 L 103.886,34.398 L 104.4,34.2 L 104.914,33.987 L 105.429,33.759 L 105.943,33.517 L 106.457,33.26 L 106.971,32.988 L 107.486,32.701 L 108,32.4 L 108.514,32.084 L 109.029,31.753 L 109.543,31.408 L 110.057,31.048 L 110.571,30.673 L 111.086,30.284 L 111.6,29.88 L 112.114,29.461 L 112.629,29.028 L 113.143,28.58 L 113.657,28.117 L 114.171,27.639 L 114.686,27.147 L 115.2,26.64 L 115.714,26.118 L 116.229,25.582 L 116.743,25.031 L 117.257,24.465 L 117.771,23.885 L 118.286,23.29 L 118.8,22.68 L 119.314,22.056 L 119.829,21.416 L 120.343,20.762 L 120.857,20.094 L 121.371,19.411 L 121.886,18.713 L 122.4,18 L 122.4,18 L 121.886,17.287 L 121.371,16.589 L 120.857,15.906 L 120.343,15.238 L 119.829,14.584 L 119.314,13.944 L 118.8,13.32 L 118.286,12.71 L 117.771,12.115 L 117.257,11.535 L 116.743,10.969 L 116.229,10.418 L 115.714,9.882 L 115.2,9.36 L 114.686,8.853 L 114.171,8.361 L 113.657,7.883 L 113.143,7.42 L 112.629,6.972 L 112.114,6.539 L 111.6,6.12 L 111.086,5.716 L 110.571,5.327 L 110.057,4.952 L 109.543,4.592 L 109.029,4.247 L 108.514,3.916 L 108,3.6 L 107.486,3.299 L 106.971,3.012 L 106.457,2.74 L 105.943,2.483 L 105.429,2.241 L 104.914,2.013 L 104.4,1.8 L 103.886,1.602 L 103.371,1.418 L 102.857,1.249 L 102.343,1.095 L 101.829,0.955 L 101.314,0.83 L 100.8,0.72 L 100.286,0.624 L 99.771,0.544 L 99.257,0.478 L 98.743,0.426 L 98.229,0.389 L 97.714,0.367 L 97.2,0.36 L 79.2,0.36 L 79.2,0.36 L 79.891,1.08 L 80.554,1.8 L 81.187,2.52 L 81.792,3.24 L 82.368,3.96 L 82.915,4.68 L 83.434,5.4 L 83.923,6.12 L 84.384,6.84 L 84.816,7.56 L 85.219,8.28 L 85.594,9 L 85.939,9.72 L 86.256,10.44 L 86.544,11.16 L 86.803,11.88 L 87.034,12.6 L 87.235,13.32 L 87.408,14.04 L 87.552,14.76 L 87.667,15.48 L 87.754,16.2 L 87.811,16.92 L 87.84,17.64 L 87.84,18.36 L 87.811,19.08 L 87.754,19.8 L 87.667,20.52 L 87.552,21.24 L 87.408,21.96 L 87.235,22.68 L 87.034,23.4 L 86.803,24.12 L 86.544,24.84 L 86.256,25.56 L 85.939,26.28 L 85.594,27 L 85.219,27.72 L 84.816,28.44 L 84.384,29.16 L 83.923,29.88 L 83.434,30.6 L 82.915,31.32 L 82.368,32.04 L 81.792,32.76 L 81.187,33.48 L 80.554,34.2 L 79.891,34.92 L 79.2,35.64" style="stroke:black;fill:none;stroke-width:2;stroke-linecap:round;stroke-linejoin:round;"/><path d="M 66.6 27 L 85.594,27" style="stroke:black;fill:none;stroke-width:2;stroke-linecap:round;stroke-linejoin:round;"/><path d="M 66.6 9 L 85.594,9" style="stroke:black;fill:none;stroke-width:2;stroke-linecap:round;stroke-linejoin:round;"/><path d="M 122.4 18 L 135,18" style="stroke:black;fill:none;stroke-width:2;stroke-linecap:round;stroke-linejoin:round;"/><path d="M 66.6 27 L 57.6,27" style="stroke:black;fill:none;stroke-width:2;stroke-linecap:round;stroke-linejoin:round;"/><path d="M 57.6 27" style="stroke:black;fill:none;stroke-width:2;stroke-linecap:round;stroke-linejoin:round;"/><path d="M 57.6 27 L 48.6,27" style="stroke:black;fill:none;stroke-width:2;stroke-linecap:round;stroke-linejoin:round;"/><path d="M 48.6 27 L 48.6,45" style="stroke:black;fill:none;stroke-width:2;stroke-linecap:round;stroke-linejoin:round;"/><path d="M 48.6 45" style="stroke:black;fill:none;stroke-width:2;stroke-linecap:round;stroke-linejoin:round;"/><path d="M 48.6 45 L 48.6,63" style="stroke:black;fill:none;stroke-width:2;stroke-linecap:round;stroke-linejoin:round;"/><path d="M 48.6 63 L 3.6,63" style="stroke:black;fill:none;stroke-width:2;stroke-linecap:round;stroke-linejoin:round;"/><path d="M 3.6 63" style="stroke:black;fill:none;stroke-width:2;stroke-linecap:round;stroke-linejoin:round;"/><path d="M 3.6 63 L -41.4,63" style="stroke:black;fill:none;stroke-width:2;stroke-linecap:round;stroke-linejoin:round;"/><path d="M 135 18 L 162,18" style="stroke:black;fill:none;stroke-width:2;stroke-linecap:round;stroke-linejoin:round;"/><path d="M 162 18" style="stroke:black;fill:none;stroke-width:2;stroke-linecap:round;stroke-linejoin:round;"/><path d="M 162 18 L 189,18" style="stroke:black;fill:none;stroke-width:2;stroke-linecap:round;stroke-linejoin:round;"/><text x="-100.8" y="3.6" dominant-baseline="central" fill="black" font-size="14" font-family="sans-serif" text-anchor="end">A</text><text x="-100.8" y="21.6" dominant-baseline="central" fill="black" font-size="14" font-family="sans-serif" text-anchor="end">B</text><text x="-52.2" y="66.6" dominant-baseline="central" fill="black" font-size="14" font-family="sans-serif" text-anchor="end">C</text><text x="192.6" y="21.6" dominant-baseline="central" fill="black" font-size="14" font-family="sans-serif" text-anchor="start">Y</text></svg>