<?xml version="1.0" encoding="UTF-8"?>
<svg xmlns="http://www.w3.org/2000/svg" width="261.2pt" height="179.44pt" viewBox="-148.6 -106.8 261.2 179.44"><path d="M 0 22.5 L 0,-22.5 L 77.942,22.5 L 0,67.5 L 0,22.5 M 77.942,22.5" style="stroke:black;fill:none;stroke-width:2;stroke-linecap:round;stroke-linejoin:round;"/><path d="M 6.143 0 L 13.343,0" style="stroke:black;fill:none;stroke-width:2;stroke-linecap:round;stroke-linejoin:round;"/><path d="M 6.143 45 L 13.343,45" style="stroke:black;fill:none;stroke-width:2;stroke-linecap:round;stroke-linejoin:round;"/><path d="M 9.743 48.6 L 9.743,41.4" style="stroke:black;fill:none;stroke-width:2;stroke-linecap:round;stroke-linejoin:round;"/><path d="M 0 45 L -18,45" style="stroke:black;fill:none;stroke-width:2;stroke-linecap:round;stroke-linejoin:round;"/><path d="M -18 45" style="stroke:black;fill:none;stroke-width:2;stroke-linecap:round;stroke-linejoin:round;"/><path d="M -18 45 L -36,45" style="stroke:black;fill:none;stroke-width:2;stroke-linecap:round;stroke-linejoin:round;"/><path d="M -36 45 L -36,59.4 L -45,59.4 L -27,59.4 M -42.3,63.72 L -29.7,63.72 M -37.8,68.04 L -34.2,68.04" style="stroke:black;fill:none;stroke-width:2;stroke-linecap:round;stroke-linejoin:round;"/><path d="M 0 0 L -18,-0" style="stroke:black;fill:none;stroke-width:2;stroke-linecap:round;stroke-linejoin:round;"/><path d="M -18 -0" style="stroke:black;fill:none;stroke-width:2;stroke-linecap:round;stroke-linejoin:round;"/><path d="M -18 -0 L -36,-0" style="stroke:black;fill:none;stroke-width:2;stroke-linecap:round;stroke-linejoin:round;"/><path d="M -36 -0 L -72,-0" style="stroke:black;fill:none;stroke-width:2;stroke-linecap:round;stroke-linejoin:round;"/><path d="M -72 -0 L -75,9 L -81,-9 L -87,9 L -93,-9 L -99,9 L -105,-9 L -108,-0" style="stroke:black;fill:none;stroke-width:2;stroke-linecap:round;stroke-linejoin:round;"/><path d="M -108 -0 L -144,-0" style="stroke:black;fill:none;stroke-width:2;stroke-linecap:round;stroke-linejoin:round;"/><path d="M 0 0 L 0,-36" style="stroke:black;fill:none;stroke-width:2;stroke-linecap:round;stroke-linejoin:round;"/><path d="M 0 -36" style="stroke:black;fill:none;stroke-width:2;stroke-linecap:round;stroke-linejoin:round;"/><path d="M 0 -36 L 0,-72" style="stroke:black;fill:none;stroke-width:2;stroke-linecap:round;stroke-linejoin:round;"/><path d="M 0 -72 L 36,-72" style="stroke:black;fill:none;stroke-width:2;stroke-linecap:round;stroke-linejoin:round;"/><path d="M 36 -72 L 39,-81 L 45,-63 L 51,-81 L 57,-63 L 63,-81 L 69,-63 L 72,-72" style="stroke:black;fill:none;stroke-width:2;stroke-linecap:round;stroke-linejoin:round;"/><path d="M 72 -72 L 108,-72" style="stroke:black;fill:none;stroke-width:2;stroke-linecap:round;stroke-linejoin:round;"/><path d="M 108 -72 L 108,-24.75" style="stroke:black;fill:none;stroke-width:2;stroke-linecap:round;stroke-linejoin:round;"/><path d="M 108 -24.75" style="stroke:black;fill:none;stroke-width:2;stroke-linecap:round;stroke-linejoin:round;"/><path d="M 108 -24.75 L 108,22.5" style="stroke:black;fill:none;stroke-width:2;stroke-linecap:round;stroke-linejoin:round;"/><path d="M 77.942 22.5 L 92.971,22.5" style="stroke:black;fill:none;stroke-width:2;stroke-linecap:round;stroke-linejoin:round;"/><path d="M 92.971 22.5" style="stroke:black;fill:none;stroke-width:2;stroke-linecap:round;stroke-linejoin:round;"/><path d="M 92.971 22.5 L 108,22.5" style="stroke:black;fill:none;stroke-width:2;stroke-linecap:round;stroke-linejoin:round;"/><text x="-90" y="-16.2" dominant-baseline="ideographic" fill="black" font-size="14" font-family="sans-serif" text-anchor="middle">Ri</text><text x="54" y="-88.2" dominant-baseline="ideographic" fill="black" font-size="14" font-family="sans-serif" text-anchor="middle">Rf</text></svg>