<?xml version="1.0" encoding="UTF-8"?>
<svg xmlns="http://www.w3.org/2000/svg" width="170.708pt" height="151.9pt" viewBox="-49.108 -142.8 170.708 151.9"><circle cx="0" cy="-54" r="18" style="stroke:black;fill:none;stroke-width:2;"/><path d="M 72 -0 a 4.5 4.5 -180 1 1 -9 -0" style="stroke:black;fill:none;stroke-width:2;"/><path d="M 63 -0 a 4.5 4.5 -180 1 1 -9 -0" style="stroke:black;fill:none;stroke-width:2;"/><path d="M 54 -0 a 4.5 4.5 -180 1 1 -9 -0" style="stroke:black;fill:none;stroke-width:2;"/><path d="M 45 -0 a 4.5 4.5 -180 1 1 -9 -0" style="stroke:black;fill:none;stroke-width:2;"/><path d="M 0 0 L 0,-36" style="stroke:black;fill:none;stroke-width:2;stroke-linecap:round;stroke-linejoin:round;"/><path d="M 0 -36 L 0,-36 M 0,-72 L 0,-72" style="stroke:black;fill:none;stroke-width:2;stroke-linecap:round;stroke-linejoin:round;"/><path d="M 0 -72 L 0,-108" style="stroke:black;fill:none;stroke-width:2;stroke-linecap:round;stroke-linejoin:round;"/><path d="M 3.6 -45 L -3.6,-45" style="stroke:black;fill:none;stroke-width:2;stroke-linecap:round;stroke-linejoin:round;"/><path d="M 0 -59.4 L 0,-66.6" style="stroke:black;fill:none;stroke-width:2;stroke-linecap:round;stroke-linejoin:round;"/><path d="M 3.6 -63 L -3.6,-63" style="stroke:black;fill:none;stroke-width:2;stroke-linecap:round;stroke-linejoin:round;"/><path d="M 0 -108 L 36,-108" style="stroke:black;fill:none;stroke-width:2;stroke-linecap:round;stroke-linejoin:round;"/><path d="M 36 -108 L 39,-117 L 45,-99 L 51,-117 L 57,-99 L 63,-117 L 69,-99 L 72,-108" style="stroke:black;fill:none;stroke-width:2;stroke-linecap:round;stroke-linejoin:round;"/><path d="M 72 -108 L 108,-108" style="stroke:black;fill:none;stroke-width:2;stroke-linecap:round;stroke-linejoin:round;"/><path d="M 108 -108 L 108,-57.24" style="stroke:black;fill:none;stroke-width:2;stroke-linecap:round;stroke-linejoin:round;"/><path d="M 108 -57.24 M 117,-57.24 L 99,-57.24 M 117,-50.76 L 99,-50.76 M 108,-50.76" style="stroke:black;fill:none;stroke-width:2;stroke-linecap:round;stroke-linejoin:round;"/><path d="M 108 -50.76 L 108,0" style="stroke:black;fill:none;stroke-width:2;stroke-linecap:round;stroke-linejoin:round;"/><path d="M 108 0 L 72,-0" style="stroke:black;fill:none;stroke-width:2;stroke-linecap:round;stroke-linejoin:round;"/><path d="M 72 -0 M 36,-0" style="stroke:black;fill:none;stroke-width:2;stroke-linecap:round;stroke-linejoin:round;"/><path d="M 36 -0 L -0,-0" style="stroke:black;fill:none;stroke-width:2;stroke-linecap:round;stroke-linejoin:round;"/><text x="-28.8" y="-54" dominant-baseline="central" fill="black" font-size="14" font-family="sans-serif" text-anchor="end">V₁</text><text x="54" y="-124.2" dominant-baseline="ideographic" fill="black" font-size="14" font-family="sans-serif" text-anchor="middle">1kΩ</text><text x="88.2" y="-54" dominant-baseline="central" fill="black" font-size="14" font-family="sans-serif" text-anchor="end">10μF</text><text x="54" y="-7.2" dominant-baseline="ideographic" fill="black" font-size="14" font-family="sans-serif" text-anchor="middle">100mH</text></svg>